<?xml version="1.0" standalone="no"?>
<!DOCTYPE svg PUBLIC "-//W3C//DTD SVG 20010904//EN"
 "http://www.w3.org/TR/2001/REC-SVG-20010904/DTD/svg10.dtd">
<svg version="1.0" xmlns="http://www.w3.org/2000/svg"
 width="259.000000pt" height="225.000000pt" viewBox="0 0 259.000000 225.000000"
 preserveAspectRatio="xMidYMid meet">
<g transform="translate(0.000000,225.000000) scale(0.100000,-0.100000)"
fill="#004f5f" stroke="none">
<path d="M1185 2005 c-24 -23 -25 -30 -25 -149 l0 -124 -197 -4 c-183 -3 -202
-5 -251 -27 -65 -29 -134 -104 -156 -168 -24 -70 -24 -836 0 -906 22 -64 91
-139 156 -168 l53 -24 470 0 470 0 53 24 c65 29 134 104 156 168 24 70 24 836
0 906 -22 64 -91 139 -156 168 -49 22 -68 24 -250 27 l-198 4 0 124 c0 119 -1
126 -25 149 -13 14 -36 25 -50 25 -14 0 -37 -11 -50 -25z m531 -451 c15 -11
37 -33 48 -48 20 -27 21 -39 21 -426 0 -387 -1 -399 -21 -426 -11 -15 -33 -37
-48 -48 -27 -20 -39 -21 -481 -21 -442 0 -454 1 -481 21 -15 11 -37 33 -48 48
-20 26 -21 42 -24 379 -4 406 -1 445 36 488 49 59 46 59 529 56 429 -2 442 -3
469 -23z"/>
<path d="M902 1316 c-34 -31 -37 -39 -37 -86 0 -47 3 -55 37 -86 31 -28 45
-34 83 -34 38 0 52 6 83 34 34 31 37 39 37 86 0 47 -3 55 -37 86 -31 28 -45
34 -83 34 -38 0 -52 -6 -83 -34z"/>
<path d="M1402 1316 c-34 -31 -37 -39 -37 -86 0 -47 3 -55 37 -86 31 -28 45
-34 83 -34 38 0 52 6 83 34 34 31 37 39 37 86 0 47 -3 55 -37 86 -31 28 -45
34 -83 34 -38 0 -52 -6 -83 -34z"/>
<path d="M858 819 c-25 -14 -24 -65 1 -79 11 -5 45 -10 76 -10 72 0 95 12 95
50 0 19 -7 33 -19 40 -25 13 -131 13 -153 -1z"/>
<path d="M1158 819 c-25 -14 -24 -65 1 -79 11 -5 45 -10 76 -10 72 0 95 12 95
50 0 19 -7 33 -19 40 -25 13 -131 13 -153 -1z"/>
<path d="M1458 819 c-25 -14 -24 -65 1 -79 11 -5 45 -10 76 -10 72 0 95 12 95
50 0 19 -7 33 -19 40 -25 13 -131 13 -153 -1z"/>
<path d="M345 1323 c-32 -8 -74 -42 -90 -73 -22 -42 -22 -398 0 -440 22 -42
67 -70 125 -77 l50 -6 0 302 0 301 -32 -1 c-18 -1 -42 -4 -53 -6z"/>
<path d="M2040 1030 l0 -303 50 6 c58 7 103 35 125 77 22 42 22 398 0 440 -22
42 -67 70 -125 77 l-50 6 0 -303z"/>
</g>
</svg>
